<!-- Icon made by Freepik from https://www.flaticon.com/free-icon/binoculars_425951 -->
<svg xmlns="http://www.w3.org/2000/svg" viewBox="0 0 508 508"><circle cx="254" cy="254" r="254" fill="#84dbff"/><path d="M202.8 134c-24-6.4-48.8 6-58.4 28.8l-68 121.6 140.4 37.2L239.6 188a50.14 50.14 0 0 0-36.8-54z" fill="#324a5e"/><circle cx="146.4" cy="303.2" r="72.8" fill="#2b3b4e"/><circle cx="146.4" cy="303.2" r="50.8" fill="#e6e9ee"/><path d="M305.2 134c24-6.4 48.8 6 58.4 28.8l68 121.6-140.4 37.2L268.4 188a50.14 50.14 0 0 1 36.8-54z" fill="#324a5e"/><circle cx="361.6" cy="303.2" r="72.8" fill="#2b3b4e"/><circle cx="361.6" cy="303.2" r="50.8" fill="#e6e9ee"/><path fill="#324a5e" d="M202.4 210h103.2v43.2H202.4z"/><g fill="#fff"><ellipse transform="rotate(-60.81 337.6 292.4)" cx="337.6" cy="292.39" rx="18" ry="10"/><ellipse transform="rotate(-60.81 123.2 292.43)" cx="123.19" cy="292.43" rx="18" ry="10"/></g></svg>