<!-- Icon made by Freepik from https://www.freepik.com/free-vector/park-with-family-of-ducks-in-the-lake_801268.htm -->
<svg xmlns="http://www.w3.org/2000/svg" width="800" height="800" viewBox="0 0 800 800"><path fill="#B6ECEF" d="M.14-2.31h800v800H.14z"/><linearGradient id="a" gradientUnits="userSpaceOnUse" x1="399.02" y1="796.67" x2="399.02" y2="69.05"><stop offset="0" stop-color="#e3fffc"/><stop offset="1" stop-color="#e3fffc" stop-opacity="0"/></linearGradient><path fill="url(#a)" d="M-.98-2.31h800v800h-800z"/><path fill="#F4F4F4" d="M589.97 201.64s-168-2-168 0 11.33-35.34 42.67-35.34c0 0 2-28.66 28.66-28.66 26.67 0 32 26.66 32 26.66s64.67-5.33 64.67 37.34z"/><path fill="#83C658" d="M0 288s34.84-12.94 70 25c0 0 39.04-8.81 71.91 12 0 0 46.94-1.47 67.1 18.69s0 24.31 0 24.31L0 407.78V288zM799.74 286s-34.84-12.94-70 25c0 0-39.04-8.81-71.92 12 0 0-46.93-1.47-67.09 18.69s0 24.31 0 24.31l209.01 39.78V286z"/><path fill="#DEE460" d="M0 361s464-55 800 0v118H0V361z"/><path fill="#FCE29A" d="M0 425s457-38 800 0v191H0V425z"/><path fill="#35D8D0" d="M0 571.2s506-82 800 0v231H0v-231z"/><linearGradient id="b" gradientUnits="userSpaceOnUse" x1="400" y1="362.49" x2="400" y2="776.52"><stop offset="0" stop-color="#45efe3"/><stop offset="1" stop-color="#45efe3" stop-opacity="0"/></linearGradient><path fill="#25AFA5" d="M0 571.2s509-85 800 0v55s-304-107-800 0v-55z"/><path fill="#F4F4F4" d="M359.43 228.04s-124.3-1.48-124.3 0 8.38-26.14 31.56-26.14c0 0 1.48-21.21 21.21-21.21s23.68 19.73 23.68 19.73 47.85-3.95 47.85 27.62zM564.48 41.23s-90.26-1.07-90.26 0 6.1-18.98 22.93-18.98c0 0 1.07-15.4 15.4-15.4s17.19 14.32 17.19 14.32 34.74-2.87 34.74 20.06z"/><g><path fill="#5F6D0F" d="M734.81 190.25s.75 49.87-46.15 43.17c0 0 0 26.05-23.82 27.54 0 0-29.03 3.72-37.96-14.88 0 0-45.4-4.47-45.4-49.88l153.33-5.95z"/><path fill="#472D0D" d="M702.8 362.94s-20.1-10.42-23.81-32c-3.73-21.6-6.7-134.74-6.7-134.74h-17.12s15.63 55.09 5.95 54.34c-9.68-.74-28.28-23.82-28.28-23.82l-5.96 5.96s29.77 27.54 29.77 35.73v63.27s-11.9 27.54-29.77 31.26c0 0 55.83-6.7 75.92 0z"/><path fill="#472D0D" d="M674.9 271.3s42.05-27.46 42.05-92.22h-8.19s6.81 45.22-34.18 84.77l.31 7.45z"/><path fill="#8DA01C" d="M685.68 191.57s18.61 16.44 45.41 13.5c26.8-2.93 37.96-26.42 32.75-38.75 0 0 38.7-15.27 12.65-49.33 0 0 14.9-31.7-22.33-31.12 0 0 13.46-55.2-58.4-49.33 0 0-42.08-32.88-68.88 8.22 0 0-41.68-1.17-60.3 29.37 0 0-24.56 0-24.56 25.83 0 25.84 17.87 26.43 17.87 26.43s-26.8 28.77-2.23 44.04c0 0-5.96 35.35 38.7 35 0 0-7.88 31.79 36.26 32.75 44.13.95 50.83-15.5 50.83-15.5s12.65-15.85 2.23-31.11z"/><path fill="#5F6D0F" d="M672.57 179.08s-20.43-20.95-37.7-19.23c0 0 21.58 3.17 27.05-15.82 0 0 5.47 32.7 10.65 35.05z"/><linearGradient id="c" gradientUnits="userSpaceOnUse" x1="-253.87" y1="-65.96" x2="-250.95" y2="177.51" gradientTransform="matrix(-1 0 0 1 412.12 0)"><stop offset="0" stop-color="#b0bf22"/><stop offset="1" stop-color="#b0bf22" stop-opacity="0"/></linearGradient><path fill="url(#c)" d="M685.68 191.85s18.61 16.44 45.41 13.5c26.8-2.93 37.96-26.42 32.75-38.75 0 0 38.7-15.27 12.65-49.32 0 0 14.9-31.71-22.33-31.13 0 0 13.46-55.2-58.4-49.32 0 0-42.08-32.89-68.88 8.22 0 0-41.68-1.17-60.3 29.36 0 0-24.56 0-24.56 25.84 0 25.83 17.87 26.42 17.87 26.42s-26.8 28.78-2.23 44.04c0 0-5.96 35.35 38.7 35 0 0-7.88 31.8 36.26 32.75 44.13.96 50.83-15.48 50.83-15.48s12.65-15.86 2.23-31.13z"/><g><path fill="#5F6D0F" d="M62.02 190.22s-.75 49.87 46.15 43.17c0 0 0 26.05 23.81 27.54 0 0 29.03 3.72 37.97-14.89 0 0 45.4-4.46 45.4-49.87l-153.33-5.95z"/><path fill="#472D0D" d="M94.02 362.9s20.1-10.41 23.82-32c3.72-21.59 6.7-134.73 6.7-134.73h17.12s-15.63 55.08-5.95 54.34c9.67-.75 28.28-23.82 28.28-23.82l5.96 5.95s-29.78 27.55-29.78 35.73v63.27s11.91 27.54 29.78 31.27c0 0-55.83-6.7-75.93 0z"/><path fill="#472D0D" d="M121.94 271.27s-42.06-27.46-42.06-92.22h8.19s-6.81 45.22 34.18 84.76l-.31 7.46z"/><path fill="#8DA01C" d="M111.14 191.53s-18.6 16.45-45.4 13.51-37.96-26.43-32.75-38.76c0 0-38.71-15.26-12.66-49.32 0 0-14.88-31.71 22.33-31.12 0 0-13.45-55.2 58.4-49.33 0 0 42.1-32.88 68.89 8.22 0 0 41.68-1.17 60.29 29.36 0 0 24.56 0 24.56 25.84s-17.86 26.42-17.86 26.42 26.8 28.78 2.23 44.04c0 0 5.96 35.35-38.7 35 0 0 7.88 31.8-36.26 32.75-44.13.96-50.83-15.48-50.83-15.48s-12.66-15.86-2.24-31.13z"/><linearGradient id="d" gradientUnits="userSpaceOnUse" x1="130.83" y1="-65.96" x2="133.75" y2="177.51"><stop offset="0" stop-color="#b0bf22"/><stop offset="1" stop-color="#b0bf22" stop-opacity="0"/></linearGradient><path fill="url(#d)" d="M111.14 191.85s-18.6 16.44-45.4 13.5c-26.8-2.93-37.96-26.42-32.75-38.75 0 0-38.71-15.27-12.66-49.32 0 0-14.88-31.71 22.33-31.13 0 0-13.45-55.2 58.4-49.32 0 0 42.1-32.89 68.89 8.22 0 0 41.68-1.17 60.29 29.36 0 0 24.56 0 24.56 25.84 0 25.83-17.86 26.42-17.86 26.42s26.8 28.78 2.23 44.04c0 0 5.96 35.35-38.7 35 0 0 7.88 31.8-36.26 32.75-44.13.96-50.83-15.48-50.83-15.48s-12.66-15.86-2.24-31.13z"/><path fill="#5F6D0F" d="M124.26 179.05s20.43-20.96 37.7-19.23c0 0-21.59 3.16-27.05-15.83 0 0-5.47 32.71-10.65 35.06z"/></g><g><path fill="#6B6B6B" d="M681.04 81.19s6.5-.75 10.25-7.25 11.5-22.5 24.25-22.5 24.75 23.25 24.75 23.25 4.5 6.5 9 6.5h-68.25zM705.16 415.77c0 2-25.33 83.39-25.33 83.39h74l-27.33-83.39h-21.34zM709.16 143.99h12v263.78h-12z"/><path fill="#3F3F3F" d="M730.5 411.77a4 4 0 0 1-4 4h-22a4 4 0 0 1 0-8h22a4 4 0 0 1 4 4zM764.16 504.52c0 3.06-5.87 5.54-13.1 5.54h-72.12c-7.24 0-13.11-2.48-13.11-5.54s5.87-5.54 13.11-5.54h72.11c7.24 0 13.11 2.48 13.11 5.54zM681.66 84.19l10.75 52s10.5 9.75 22.5 9.75 22.25-9.25 22.25-9.25l11.5-52.5h-67z"/><path fill="#3F3F3F" d="M754.5 84.19c0 2.2-4.63 4-10.34 4h-56.83c-5.7 0-10.34-1.8-10.34-4 0-2.21 4.63-4 10.34-4h56.83c5.7 0 10.34 1.79 10.34 4z"/><g fill="#EAE3D1"><path d="M712.25 88.19H688l9.25 42.5 15 .75V89.19M717.75 88.19H742l-9.25 42.5-15 .75V89.19"/></g></g></g></svg>